PathFileType	4	(X/Y/Z)	26_2_114_p1_0-583_filt_butterworth.trc
DataRate	CameraRate	NumFrames	NumMarkers	Units	OrigDataRate	OrigDataStartFrame	OrigNumFrames
59.0	59.0	6	27	m	59.0	437	583
Frame#	Time	RHip			RKnee			RAnkle			RBigToe			RSmallToe			RHeel			LHip			LKnee			LAnkle			LBigToe			LSmallToe			LHeel			Neck			Head			Nose			RShoulder			RElbow			RWrist			RThumb			RIndex			RPinky			LShoulder			LElbow			LWrist			LThumb			LIndex			LPinky			
		X1	Y1	Z1	X2	Y2	Z2	X3	Y3	Z3	X4	Y4	Z4	X5	Y5	Z5	X6	Y6	Z6	X7	Y7	Z7	X8	Y8	Z8	X9	Y9	Z9	X10	Y10	Z10	X11	Y11	Z11	X12	Y12	Z12	X13	Y13	Z13	X14	Y14	Z14	X15	Y15	Z15	X16	Y16	Z16	X17	Y17	Z17	X18	Y18	Z18	X19	Y19	Z19	X20	Y20	Z20	X21	Y21	Z21	X22	Y22	Z22	X23	Y23	Z23	X24	Y24	Z24	X25	Y25	Z25	X26	Y26	Z26	X27	Y27	Z27	
437	7.406779661016949	0.30057328591939625	0.771554585233172	0.8945193144235688	0.274708252000169	0.9604289791624963	1.2466515477549338	0.2351262882187486	1.2245643731650842	1.6433687301246875	0.2172469662399002	0.9448200284768433	1.6650652637841366	0.2587198185064441	1.036827272715773	1.687275648461665	0.2328909970169099	1.2930548059516729	1.6769052567077924	0.07851939113539504	0.7802195624419981	0.8856783194161264	0.0929923648640899	0.9753266080155523	1.239355054756157	0.1270523129753608	1.2695180071932604	1.643911498519934	0.1029483591258237	1.0009165965349043	1.6722500974275234	0.06468380393377489	1.0763388204703714	1.6675714186750539	0.13332971322570308	1.3629995974640277	1.69807089183292	0.21217932363552894	0.5342519885955935	0.3492547261786819	0.2224224680639123	0.37318596003888305	0.13391645761526694	0.2122707260241606	0.3716780764106472	0.28976403804825757	0.3812589358159617	0.5885735193571903	0.420819688785414	0.41642986426628475	0.7254997535106876	0.6674580286321464	0.42980494699436667	0.7835185139480154	0.9109744640374831	0.3904551185477198	0.8228603660577719	1.0352385246373403	0.41558868679191907	0.8541031025207473	1.0474838337321006	0.42133910392475044	0.8559053507974879	1.0220680746911528	0.05768383740150495	0.5970692437657459	0.4005754494468851	-0.03276050743220329	0.7178389979386635	0.6214023612556552	-0.04621185847046174	0.804770513091307	0.8628786925744361	-0.03193458700190062	0.8246654976442827	0.9653147704818614	-0.04143409350749427	0.8530809429443196	0.9863070725449976	-0.05522419992573924	0.8528104707471329	0.9588050345249025
438	7.423728813559322	0.3005244778599507	0.7717406045125503	0.894486349394237	0.27351420920449293	0.9565862444264577	1.2465645049042973	0.23513193436267518	1.2245862558897196	1.6433642583932755	0.2172254302478678	0.9449762076931101	1.6651119408748887	0.2587060724459888	1.0369265709954085	1.6873194808197545	0.23288628384568621	1.2930694439032657	1.6768994140192488	0.07888300142021737	0.7790321389957846	0.8857987393702966	0.09280727831623087	0.9743012410345412	1.238192065074053	0.12701530176129466	1.2695834830405093	1.6439142136341522	0.10300594917839315	1.0007836235862033	1.6721927987441738	0.06423253534121869	1.0783193994469624	1.6678911829143623	0.13327125673497747	1.3629297517932677	1.698047555678935	0.21210567411842493	0.5345224167312497	0.3492222515525438	0.22245789167967783	0.37318411184660105	0.13394800065492724	0.21255412443356853	0.3729728812573293	0.2897343464021331	0.382137612695942	0.583661733048149	0.4217493091319209	0.41641894558452974	0.7253720329594748	0.6674575821463817	0.4291375289665444	0.7870067468687811	0.909807478567798	0.39254736483157476	0.823170713763938	1.0343663297190917	0.4149344246213534	0.858564673718134	1.0472596465655148	0.421272028889584	0.8547360866627893	1.0213713836616136	0.057790791487233616	0.5966161146906785	0.39960476949075907	-0.03273586715779452	0.7176125743958658	0.621064390188005	-0.04624037776505988	0.8047925210927769	0.8628976892553535	-0.031846729809306897	0.8258348378512603	0.9662804452842102	-0.04137193433861804	0.8534068782994026	0.9862700405943968	-0.05526948356969091	0.8525848600116023	0.9588043763069267
439	7.440677966101695	0.3005121340958979	0.7717907758740662	0.8944717753093272	0.2730658164707797	0.9550987029671774	1.2465045738805236	0.23513416232907994	1.2246169783388345	1.64336865380225	0.21719289251277893	0.9450865048000607	1.6650039985947416	0.25868989761864014	1.0370594104184403	1.6873289105187963	0.23289441477233125	1.293083288889871	1.6768827784509424	0.07853969920342802	0.7803806062683807	0.8857102204365764	0.09273415350298976	0.9739093770107504	1.2377246787683551	0.1270120405051403	1.269589670007996	1.6439164050586736	0.10302930391938453	1.0007782792587312	1.6721956654260404	0.06420611190601032	1.0783707977159112	1.6678855852284964	0.13323424827104635	1.3628724214783003	1.6980308717762382	0.21207808858673727	0.5346223372101024	0.3491493962003833	0.22214817233498768	0.37220574332673695	0.13445503575804038	0.21215664942918533	0.371798466298533	0.29049655333643	0.3827977210597095	0.5799892571646814	0.4225106138326711	0.4164183678941405	0.7252836388173214	0.6674612893736456	0.4288386727748598	0.7885068911281214	0.9094403385464719	0.3936564766594156	0.8240031675791417	1.0348785019851594	0.4148266358349209	0.8611581108394144	1.0472248839923792	0.42220382853026805	0.8542703805143808	1.0215871956097184	0.05792470973469311	0.5960663466989815	0.39837993503561586	-0.03255080075733255	0.7170258944688608	0.6204068732783752	-0.04627932887046917	0.8047033896044798	0.8628330743080166	-0.03170073003764659	0.8264259993529962	0.9670790103298357	-0.041403785395419015	0.8533989150159249	0.9862626304339257	-0.055295674583058514	0.8522810086742608	0.9587981165065736
440	7.4576271186440675	0.30050540535481257	0.7718223618954839	0.8944576182647503	0.27319473766267893	0.955266673953322	1.2464989170869496	0.23514225489234686	1.22466169633659	1.6433811137441883	0.21719225035163287	0.9452954247024548	1.6648653445752088	0.25868438867733035	1.0372308638392205	1.6873245145939135	0.23291466784812365	1.2928913943085865	1.6768299710274417	0.07787797482733884	0.7828327735674302	0.8855372938396882	0.09272307830912979	0.9738729779838196	1.2376690247814646	0.12704891623896028	1.269575598282557	1.6439174732382713	0.10303289806484547	1.0007914976468877	1.672236694169183	0.06429433558436329	1.0779159867246226	1.667770811123389	0.13321894025822986	1.3628017164850303	1.698010218143679	0.21207880910148527	0.5346218795972394	0.3491082764444214	0.2212488102825027	0.3696331689044141	0.13564577941239447	0.2111875968956578	0.3685312438688259	0.29243001466705876	0.3830217051466588	0.5784174149689294	0.4226579137232329	0.4164076235520242	0.7252275189970218	0.6674639519366338	0.4287665287813912	0.7888493559749927	0.909833222357982	0.39370236695487304	0.8251862145861032	1.0369391854301027	0.41493203786129473	0.8622041656953761	1.0476967731715159	0.4240294785457063	0.8546555956593813	1.0225783139881053	0.05802747302304578	0.5956639316981805	0.39749133749267385	-0.03196190067204716	0.7152977861566193	0.6201412509972166	-0.046298612672934114	0.8046169785602034	0.8627405303890079	-0.03153798928475323	0.8263751626755009	0.9671790766192837	-0.04173010821243507	0.8519983096462793	0.9863005862965561	-0.05519437141245001	0.8524044441186136	0.9587736641418982
441	7.47457627118644	0.30048513510595126	0.7718789414932683	0.8944364530975243	0.27358756111209337	0.9560447224980003	1.2465449916416207	0.23515104989771043	1.2247057969701534	1.6433901870814593	0.21726367552239273	0.9457398527349307	1.6650268889185764	0.2586764297701347	1.0373544948263533	1.6873207444308742	0.23294342607872914	1.2923561566430317	1.6767149044562415	0.07745791083644762	0.7844124474764157	0.8854410176111691	0.09271550612570027	0.9738872226560029	1.2376880994131878	0.1270896877243801	1.2695522753219726	1.6439114977896603	0.10303186235996044	1.0007873719169003	1.6722455792703288	0.06435741054710946	1.077694230985997	1.6676712946417975	0.13316433845017372	1.3626122661909272	1.6979572673898926	0.21205307536156187	0.5346967196882642	0.34906213322177104	0.22001008719509443	0.36617191108962316	0.13715757129943007	0.20997048186638376	0.3645493917777752	0.2949251392778371	0.38293725222587877	0.5782392467100336	0.42248634489352743	0.41638131490284436	0.7251434868401352	0.6674645086325487	0.42868692134149394	0.7891198221378252	0.910814836987814	0.3934161809881558	0.8261568611391603	1.0393707969673462	0.41496811209441953	0.8624938725264208	1.048867685826897	0.4259185326991339	0.8558128445149347	1.023834256677258	0.058071654466284206	0.5955046754656378	0.39717561683770525	-0.030737363803033498	0.7116918982947629	0.620520468425265	-0.04628912746971395	0.8045562024078401	0.862627981054855	-0.03152520239661199	0.8263511992712926	0.9666328080853667	-0.04251013086539462	0.8484790678958867	0.9863819208139009	-0.054978807115616916	0.853298645556076	0.958691327722993
442	7.491525423728813	0.30045555360006226	0.7719396734422157	0.8945143264936436	0.2738357205556822	0.9566877202692721	1.2466064053339097	0.23514015222126142	1.2247272061135623	1.643388352016594	0.2174120777739383	0.9465589794250794	1.6659926558429543	0.25863822496135336	1.037333817166799	1.6873105470624803	0.2329676926060662	1.292021789688967	1.6766115508479749	0.07736399408321731	0.7848971377445655	0.8854391003028521	0.09271216389911427	0.9739540885660101	1.237773636251571	0.12708705177410712	1.2694828396340736	1.643898594884127	0.10296365611188422	1.0007481494782877	1.6720499150782544	0.06436619273218994	1.0779055060662024	1.6676352808411035	0.13303711021037307	1.362287774523483	1.6978707220923026	0.21198770897789002	0.5348915877546745	0.3489887375688403	0.21903911622122607	0.36347988484128646	0.1382698487753716	0.2089417694034123	0.3617536553937434	0.296742441456915	0.3827949914640126	0.5787366594776098	0.422644396515384	0.4163604183943459	0.7250228739368568	0.6674715700529825	0.4285433482688008	0.7895822398463951	0.9120101307912022	0.3932233373145335	0.8265460396735288	1.0409223312514004	0.4149368514885744	0.8625324417840387	1.050367816160275	0.4269548797761049	0.8572492424416007	1.0246871850629338	0.05807670002557973	0.5955024661651499	0.39719992993555825	-0.029173291779595	0.7070757558401941	0.6210492447597542	-0.046266475105820756	0.8044779689168409	0.8624869804648833	-0.03204589004753217	0.8275223538047592	0.9658098072019209	-0.043490483780186266	0.8441266609421292	0.9864246561492674	-0.05510109317717894	0.8544109760768253	0.9585131820283037
